<svg xmlns="http://www.w3.org/2000/svg" fill="none" viewBox="0 0 24 24" id="Redux--Streamline-Svg-Logos" height="24" width="24">
  <desc>
    Redux Streamline Icon: https://streamlinehq.com
  </desc>
  <path fill="#764abc" d="M16.533025 16.426025c0.867225 -0.089725 1.525125 -0.83735 1.495225 -1.734525 -0.0299 -0.897175 -0.777525 -1.614925 -1.67465 -1.614925h-0.059825c-0.92705 0.0299 -1.64475 0.80745 -1.61485 1.73455 0.0299 0.448575 0.209325 0.83735 0.478475 1.1065 -1.01675 2.0037 -2.5718 3.469075 -4.904375 4.695225 -1.58495 0.83735 -3.229725 1.136425 -4.874475 0.927075 -1.345725 -0.179425 -2.392375 -0.77755 -3.0502825 -1.76445 -0.9569525 -1.465375 -1.0466675 -3.050375 -0.2392375 -4.6354 0.568195 -1.136425 1.46532 -1.973775 2.03352 -2.392475 -0.119625 -0.388775 -0.29905 -1.0467 -0.38875 -1.525175C-0.6023975 14.362525 -0.15382675 18.60915 1.1619825 20.61285c0.986855 1.495275 2.9904675 2.422375 5.2034175 2.422375 0.5981 0 1.1962 -0.059825 1.7943 -0.20935C11.9875 22.078225 14.88825 19.8054 16.533025 16.426025ZM21.79625 12.7177c-2.27275 -2.6616 -5.6221 -4.127 -9.4499 -4.127h-0.478475c-0.26915 -0.5383 -0.837325 -0.897175 -1.465325 -0.897175h-0.059825c-0.927025 0.0299 -1.64475 0.80745 -1.61485 1.73455 0.0299 0.897175 0.777525 1.6149 1.674675 1.6149h0.0598c0.6579 -0.0299 1.2261 -0.448575 1.46535 -1.0168h0.538275c2.27275 0 4.4259 0.657925 6.3697 1.943875 1.49525 0.9869 2.571825 2.27285 3.1699 3.82795 0.5084 1.25605 0.478475 2.4822 -0.0598 3.5289 -0.837325 1.585 -2.24285 2.452275 -4.09695 2.452275 -1.1962 0 -2.332575 -0.358875 -2.930675 -0.628025 -0.32895 0.29905 -0.927025 0.77755 -1.3457 1.0766 1.2859 0.598125 2.6017 0.9271 3.8577 0.9271 2.870875 0 4.9941 -1.585025 5.801525 -3.170025 0.86725 -1.73455 0.807425 -4.725125 -1.435425 -7.267125ZM6.60465 16.934425c0.0299 0.897175 0.777525 1.614925 1.67465 1.614925h0.059825c0.92705 -0.0299 1.64475 -0.807475 1.61485 -1.73455 -0.0299 -0.897175 -0.777525 -1.6149 -1.674675 -1.6149h-0.0598c-0.0598 0 -0.149525 0 -0.209325 0.0299 -1.2261 -2.0336 -1.734475 -4.246625 -1.55505 -6.6391 0.119625 -1.79435 0.7177 -3.34945 1.764375 -4.6354 0.867225 -1.106525 2.5419 -1.6448225 3.678275 -1.6747275C15.067675 2.22076 16.4134 6.168325 16.5031 7.75335c0.388775 0.0897 1.046675 0.29905 1.49525 0.448575C17.6395 3.357175 14.649025 0.8450925 11.778175 0.8450925c-2.691425 0 -5.173525 1.9438825 -6.160375 4.8148325 -1.375625 3.82795 -0.4785 7.506375 1.196175 10.407225 -0.149525 0.20935 -0.239225 0.538325 -0.209325 0.867275Z" stroke-width="0.25"></path>
</svg>